<?xml version="1.0" encoding="UTF-8" standalone="no"?>
<!-- Created with Inkscape (http://www.inkscape.org/) -->

<svg
   width="118.32137mm"
   height="183.02228mm"
   viewBox="0 0 118.32137 183.02228"
   version="1.1"
   id="svg11419"
   inkscape:version="1.1.2 (b8e25be833, 2022-02-05)"
   sodipodi:docname="new_portrait.svg"
   xmlns:inkscape="http://www.inkscape.org/namespaces/inkscape"
   xmlns:sodipodi="http://sodipodi.sourceforge.net/DTD/sodipodi-0.dtd"
   xmlns="http://www.w3.org/2000/svg"
   xmlns:svg="http://www.w3.org/2000/svg">
  <sodipodi:namedview
     id="namedview11421"
     pagecolor="#ffffff"
     bordercolor="#999999"
     borderopacity="1"
     inkscape:pageshadow="0"
     inkscape:pageopacity="0"
     inkscape:pagecheckerboard="0"
     inkscape:document-units="mm"
     showgrid="false"
     inkscape:zoom="1"
     inkscape:cx="271.5"
     inkscape:cy="325"
     inkscape:window-width="1920"
     inkscape:window-height="1017"
     inkscape:window-x="-8"
     inkscape:window-y="-8"
     inkscape:window-maximized="1"
     inkscape:current-layer="layer1" />
  <defs
     id="defs11416" />
  <g
     inkscape:label="Слой 1"
     inkscape:groupmode="layer"
     id="layer1"
     transform="translate(-0.29896446,-0.35440174)">
    <path
       id="path10201"
       style="display:inline;fill:#000000;fill-opacity:1;fill-rule:evenodd;stroke:none;stroke-width:0.264999;stroke-miterlimit:4;stroke-dasharray:none;stroke-opacity:1"
       d="m 53.708525,0.35440174 a 3.2826647,3.666029 0 0 0 -3.28249,3.66592726 3.2826647,3.666029 0 0 0 3.28249,3.665926 3.2826647,3.666029 0 0 0 3.28249,-3.665926 3.2826647,3.666029 0 0 0 -3.28249,-3.66592726 z m -0.27234,0.87694806 a 2.3142817,2.6529247 0 0 1 2.31459,2.6525512 2.3142817,2.6529247 0 0 1 -2.31459,2.65307 2.3142817,2.6529247 0 0 1 -2.31407,-2.65307 2.3142817,2.6529247 0 0 1 2.31407,-2.6525512 z" />
    <path
       style="display:inline;fill:#000000;fill-opacity:1;stroke:none;stroke-width:0.264583px;stroke-linecap:butt;stroke-linejoin:miter;stroke-opacity:1"
       d="m 56.582025,5.113169 2.01374,1.807197 -1.08432,0.361439 -1.57484,-0.981049 z"
       id="path10604" />
    <path
       style="display:inline;fill:#000000;fill-opacity:1;stroke:none;stroke-width:0.264583px;stroke-linecap:butt;stroke-linejoin:miter;stroke-opacity:1"
       d="m 51.487245,6.049302 4.1805,-3.8519002 0.29209,0.638943 -4.12573,3.5780662 0.78498,0.200811 3.34075,-3.158194 0.073,0.693708 -2.73832,2.939127 z"
       id="path11247" />
    <path
       id="path1639"
       style="fill:#000000;fill-opacity:1;stroke:none;stroke-width:0.544071px;stroke-linecap:butt;stroke-linejoin:miter;stroke-opacity:1"
       d="m 54.066731,33.36638 c -4.556602,-0.03339 -9.112722,0.175447 -13.669322,0.656933 l 0.543766,2.720891 -6.256739,-2.176437 c -1.079132,-0.163334 -1.889216,0.210802 -2.720202,0.543764 l 1.631982,22.307442 3.536539,3.263964 -3.80842,1.360101 0.816337,7.889411 c 0.997464,0.25587 1.994618,0.296861 2.992083,0.543764 -0.17627,0.412346 -0.448289,0.544307 -0.816338,1.3601 -0.03135,0.798654 0.774054,1.096127 1.632675,1.360789 -2.160002,0.541004 -2.454718,1.729231 -3.264656,2.992084 v 26.387744 c 1.117507,-0.49035 1.667938,-1.7937 2.7202,-1.63267 1.368524,0.90782 1.50542,1.66166 1.904553,2.44832 6.796804,-0.45954 13.126659,-1.61867 20.402199,-1.36011 l 12.786047,0.81634 c 2.260391,-1.15252 4.53253,-2.35299 6.528622,-2.44832 -0.148693,-0.816109 0.0586,-1.632209 0.544452,-2.448316 1.260843,0.961077 1.792607,2.130686 2.44832,3.264656 0.865196,-0.15431 1.610085,-0.44863 2.992083,0 C 83.835779,87.536387 84.791747,73.662134 84.874973,59.867292 83.767876,58.527125 82.685572,57.16912 82.018829,55.51442 c 0.568375,-1.122112 1.280235,-1.90827 2.039807,-2.584263 0.125682,-1.654212 0.806911,-2.938115 1.496732,-4.21624 -0.21018,-4.68091 0.169368,-9.499345 -0.408513,-14.690604 -5.965233,0.259602 -11.83687,0.892675 -17.546055,2.176437 -1.454328,-0.748015 -2.783073,-1.542262 -3.80842,-2.44832 -0.09521,1.364258 -0.22515,2.690663 -0.544457,3.808421 -1.001078,-0.484068 -1.965537,-0.991105 -2.720197,-1.631983 -0.851124,-0.754289 -1.358388,-1.606705 -1.903867,-2.448319 -1.518868,-0.06389 -3.038262,-0.102038 -4.557128,-0.113169 z m -4.020268,0.723178 c 2.719018,-0.02755 5.370073,0.06729 8.157152,0.133181 1.524156,1.633378 3.184269,3.161152 5.235455,4.384616 0.45425,-1.132133 0.736649,-2.417023 0.662455,-4.018887 1.026583,1.011813 2.128871,1.957388 3.621414,2.561489 5.587951,-1.05706 11.180489,-2.049855 16.826326,-2.296507 0.452292,4.518391 0.294048,8.884148 0.309145,13.29324 -0.920888,1.17767 -1.367224,2.702126 -1.523644,4.43844 -0.977192,0.743786 -1.874688,1.555003 -2.09777,2.936878 0.864084,1.728355 1.664243,3.568578 2.981042,4.504687 -0.468117,13.570417 -0.901573,27.13588 0.2429,40.475925 -0.660539,-0.22848 -1.330211,-0.42043 -2.164016,0.0442 -0.748693,-1.368849 -1.646839,-2.648031 -2.981043,-3.665577 -0.472291,1.005731 -1.355468,1.987298 -0.905353,3.047288 -2.165973,0.333059 -4.281168,0.936929 -6.271229,2.208179 -10.888706,-1.12775 -21.759703,-1.72414 -32.532,0.64037 0.540941,-0.27047 -1.965138,-2.16208 -2.003925,-2.61669 -0.02397,-0.280969 -2.561487,1.22799 -2.561487,1.74446 0.0774,-8.052106 0.155144,-16.34625 0.232547,-25.554845 0.633349,-1.4628 1.82803,-2.582683 3.958164,-3.130785 -0.904506,-0.360669 -2.065807,-0.537658 -2.435898,-1.280051 0.0037,-0.516329 0.514548,-1.177769 1.093048,-1.858323 -1.344473,0.203481 -2.205945,-0.269196 -3.154247,-0.62036 -0.426299,-2.314017 -0.726053,-4.649345 -0.655553,-7.046163 0.737814,-0.698163 2.354243,-1.145292 3.887776,-1.616112 -1.519892,-1.378278 -2.87605,-2.658301 -3.809798,-3.684896 -0.478836,-6.741886 -0.957862,-13.634831 -1.436699,-21.250967 1.761103,-0.794655 5.757944,1.093275 8.962449,1.952168 0.06664,-0.929018 0.07973,-1.903122 -0.202876,-3.123193 3.059639,-0.424101 5.846647,-0.574177 8.565665,-0.601729 z" />
    <path
       style="fill:#000000;fill-opacity:1;stroke:none;stroke-width:0.264583px;stroke-linecap:butt;stroke-linejoin:miter;stroke-opacity:1"
       d="M 14.851048,43.481485 C 14.14702,62.090076 14.46046,80.407962 14.586464,98.779401 Z"
       id="path6525"
       sodipodi:nodetypes="ccc" />
    <path
       style="fill:#000000;fill-opacity:1;stroke:none;stroke-width:0.358156px;stroke-linecap:butt;stroke-linejoin:miter;stroke-opacity:1"
       d="m 110.20738,64.56598 c 1.29006,18.608592 0.71571,36.92648 0.48482,55.29791 z"
       id="path6525-2"
       sodipodi:nodetypes="ccc" />
    <path
       style="fill:#000000;fill-opacity:1;stroke:none;stroke-width:0.21577px;stroke-linecap:butt;stroke-linejoin:miter;stroke-opacity:1"
       d="m 21.56835,26.867614 c -0.704028,12.375731 -0.390588,24.558127 -0.264584,36.77614 z"
       id="path6525-0"
       sodipodi:nodetypes="ccc" />
    <path
       style="fill:#000000;fill-opacity:1;stroke:none;stroke-width:0.264583px;stroke-linecap:butt;stroke-linejoin:miter;stroke-opacity:1"
       d="m 26.360422,146.93357 64.029166,-0.92605 c -21.141565,0.10719 -41.602999,-0.46574 -64.029166,0.92605 z"
       id="path7100"
       sodipodi:nodetypes="ccc" />
  </g>
</svg>
