<?xml version="1.0" encoding="UTF-8" standalone="no"?>
<svg
   width="108mm"
   height="37.5mm"
   viewBox="0 0 306.17981 106.31253"
   version="1.1"
   id="svg7"
   sodipodi:docname="seach window.svg"
   inkscape:version="1.1.2 (b8e25be833, 2022-02-05)"
   xmlns:inkscape="http://www.inkscape.org/namespaces/inkscape"
   xmlns:sodipodi="http://sodipodi.sourceforge.net/DTD/sodipodi-0.dtd"
   xmlns="http://www.w3.org/2000/svg"
   xmlns:svg="http://www.w3.org/2000/svg">
  <defs
     id="defs11" />
  <sodipodi:namedview
     id="namedview9"
     pagecolor="#ffffff"
     bordercolor="#999999"
     borderopacity="1"
     inkscape:pageshadow="0"
     inkscape:pageopacity="0"
     inkscape:pagecheckerboard="0"
     inkscape:document-units="mm"
     showgrid="false"
     units="mm"
     inkscape:zoom="0.51008838"
     inkscape:cx="392.08891"
     inkscape:cy="345.03824"
     inkscape:window-width="1920"
     inkscape:window-height="1017"
     inkscape:window-x="-8"
     inkscape:window-y="-8"
     inkscape:window-maximized="1"
     inkscape:current-layer="svg7" />
  <path
     id="Path"
     fill="#000000"
     stroke="#000000"
     stroke-width="0"
     d="m 106.63098,16.942251 c 70.41,-4.85 193.46,1.82 196.16,2.27 -12.07,29.91 0.75,61.25 0.75,61.25 0,0 -43.64,2.11 -50.27,3.3 0,0 -3.35,2.2 -3.46,7.45 0,0 -13.92,-0.49 -16.02,-0.94 -0.11,-0.02 -6.89,-3.97 -6.89,-3.97 0,0 0.19,-6.73 0.19,-6.73 0,0 -156.819996,-1.18 -190.239996,6.23 0,0 1.05,-1.41 3.3,-4.29 82.119996,-7.66 259.939996,-5.75 259.939996,-5.75 0,0 -11,-30.46 0.76,-54.8 0,0 -156.06,-5.37 -193.61,-0.79 0,-0.05 -0.61,-1.6 -0.61,-3.23 z" />
  <path
     id="Unnamed"
     fill="#000000"
     stroke="#000000"
     stroke-width="0"
     d="m 4.2109838,104.88225 c 0,0 -1.25,-0.57 -1.86,-1.23 -1.18,-1.29 -2.14000001,-3.11 -2.14000001,-3.11 0,0 5.41000001,-11.669999 14.06000021,-19.419999 10.17,-9.12 23.82,-14.55 23.82,-14.55 0,0 3.63,-5.45 3.63,-5.45 0,0 -14.8,-13.91 11.82,-44 28.12,-25.9100002 46.729996,-11.4600002 46.729996,-11.4600002 0,0 4.39,-3.2 7.27,0.3 1.88,4.5000002 -2.91,6.6100002 -2.91,6.6100002 0,0 10.53,14.76 -13.969996,38.52 -23.12,23.62 -38.76,20.03 -38.76,20.03 0,0 -8.36,4 -8.36,4 0,0 -5.29,10.68 -14.55,18.54 -8.82,7.499999 -21.6300002,12.189999 -21.6300002,12.189999 0,0 -2.13,-0.14 -3.15,-0.97 z" />
  <path
     id="path4"
     fill="#ffffff"
     stroke="#000000"
     stroke-width="0"
     d="m 44.540984,59.712251 c -12.69,-18.12 34.75,-63.5000002 54,-52.5000002 12.619996,4.6200002 -36.69,65.4400002 -54,52.5000002 z m 9.45,-19.41 c -0.71,-0.32 -3.77,8.27 -1.81,9.15 1.89,0.75 6.3,-7.02 5.8,-7.22 0.12,0.25 -3.87,5.81 -4.51,4.4 -0.86,-0.71 0.06,-6.71 0.52,-6.33 z m 12.29,-19.05 c -0.47,-0.88 -10.83,11.13 -9.13,14.31 5.85,2.72 15.8,-14.52 14.56,-15.09 0.75,0.1 -7.95,14.56 -13.28,13.87 -1.87,-1.39 7.58,-13.29 7.85,-13.09 z m 166.569996,65.9 c 0.73,-1.63 18.17,-3.2 18.04,-2.91 -0.33,-0.27 -2.64,5.15 -2.25,5.88 -0.15,0.59 -16.02,-1.43 -15.72,-2.6 0,0 -0.07,-0.37 -0.07,-0.37 z m -93.31,-28.21" />
  <path
     id="Unnamed #1"
     fill="#ffffff"
     stroke="#000000"
     stroke-width="0"
     d="m 55.900984,23.762251 c -17.09,17 -14.51,30.97 -14.72,30.54 -7.64,-21.54 27.91,-54.73000025 48,-50.7300002 0,0 -15.55,1 -33.28,20.1900002 z m -8.39,40.89 c 34.67,-3.99 55.299996,-46.89 55.279996,-50 0,0 1.3,0.74 2.2,2.74 1.55,15 -22.179996,49.64 -54.089996,50.73 -1.36,-1.18 -2,-2.18 -3.39,-3.47 z M 101.82098,7.4022508 c 5.4,-1.91 4.06,2.9500002 2.6,3.4700002 -0.52,0.39 -3.82,-2.5500002 -2.6,-3.4700002 z M 39.020984,67.732251 c 0,0 4.74,-4.22 4.74,-4.22 0,0 3.95,4.18 3.91,4.18 -0.04,0 -5.35,3.48 -5.35,3.52 0,0.04 -3.3,-3.48 -3.3,-3.48 z M 1.9909838,100.57225 c 6.37,-14.449999 27.5500002,-29.179999 35.3700002,-30.999999 0,0 1.73,1.46 4,4.46 -10.64,12.18 -28,24.63 -36.2700002,29.539999 -1.46,-0.72 -2.73,-1.91 -3.1,-3 z" />
</svg>
