<?xml version="1.0" encoding="UTF-8" standalone="no"?>
<!DOCTYPE svg PUBLIC "-//W3C//DTD SVG 20010904//EN"
              "http://www.w3.org/TR/2001/REC-SVG-20010904/DTD/svg10.dtd">

<svg xmlns="http://www.w3.org/2000/svg"
     width="677.249mm" height="862.081mm"
     viewBox="0 0 1920 2444">
	 
  <path id="Path"
        fill="black" stroke="black" stroke-width="0"
        d="
           M 1219.09,18.73
           C 1289.50,13.88 1412.55,20.55 1415.25,21.00
             1403.18,50.91 1416.00,82.25 1416.00,82.25
             1416.00,82.25 1372.36,84.36 1365.73,85.55
             1365.73,85.55 1362.38,87.75 1362.27,93.00
             1362.27,93.00 1348.35,92.51 1346.25,92.06
             1346.14,92.04 1339.36,88.09 1339.36,88.09
             1339.36,88.09 1339.55,81.36 1339.55,81.36
             1339.55,81.36 1182.73,80.18 1149.31,87.59
             1149.31,87.59 1150.36,86.18 1152.61,83.30
             1234.73,75.64 1412.55,77.55 1412.55,77.55
             1412.55,77.55 1401.55,47.09 1413.31,22.75
             1413.31,22.75 1257.25,17.38 1219.70,21.96
             1219.70,21.91 1219.09,20.36 1219.09,18.73 Z
           " />
  
		     <path id="Unnamed"
        fill="black" stroke="black" stroke-width="0"
        d="M 1116.67,106.67
           C 1116.67,106.67 1115.42,106.10 1114.81,105.44
             1113.63,104.15 1112.67,102.33 1112.67,102.33
             1112.67,102.33 1118.08,90.66 1126.73,82.91
             1136.90,73.79 1150.55,68.36 1150.55,68.36
             1150.55,68.36 1154.18,62.91 1154.18,62.91
             1154.18,62.91 1139.38,49.00 1166.00,18.91
             1194.12,-7.00 1212.73,7.45 1212.73,7.45
             1212.73,7.45 1217.12,4.25 1220.00,7.75
             1221.88,12.25 1217.09,14.36 1217.09,14.36
             1217.09,14.36 1227.62,29.12 1203.12,52.88
             1180.00,76.50 1164.36,72.91 1164.36,72.91
             1164.36,72.91 1156.00,76.91 1156.00,76.91
             1156.00,76.91 1150.71,87.59 1141.45,95.45
             1132.63,102.95 1119.82,107.64 1119.82,107.64
             1119.82,107.64 1117.69,107.50 1116.67,106.67 Z" />
			 <path id="Path"
        fill="white" stroke="black" stroke-width="0"
        d="M 1157.00,61.50
           C 1144.31,43.38 1191.75,-2.00 1211.00,9.00
             1223.62,13.62 1174.31,74.44 1157.00,61.50 Z
           M 1166.45,42.09
           C 1165.74,41.77 1162.68,50.36 1164.64,51.24
             1166.53,51.99 1170.94,44.22 1170.44,44.02
             1170.56,44.27 1166.57,49.83 1165.93,48.42
             1165.07,47.71 1165.99,41.71 1166.45,42.09 Z
           M 1178.74,23.04
           C 1178.27,22.16 1167.91,34.17 1169.61,37.35
             1175.46,40.07 1185.41,22.83 1184.17,22.26
             1184.92,22.36 1176.22,36.82 1170.89,36.13
             1169.02,34.74 1178.47,22.84 1178.74,23.04 Z
           M 1345.31,88.94
           C 1346.04,87.31 1363.48,85.74 1363.35,86.03
             1363.02,85.76 1360.71,91.18 1361.10,91.91
             1360.95,92.50 1345.08,90.48 1345.38,89.31
             1345.38,89.31 1345.31,88.94 1345.31,88.94 Z
           M 1252.00,60.73" />
			 <path id="Unnamed #1"
        fill="white" stroke="black" stroke-width="0"
        d="M 1168.36,25.55
           C 1151.27,42.55 1153.85,56.52 1153.64,56.09
             1146.00,34.55 1181.55,1.36 1201.64,5.36
             1201.64,5.36 1186.09,6.36 1168.36,25.55 Z
           M 1159.97,66.44
           C 1194.64,62.45 1215.27,19.55 1215.25,16.44
             1215.25,16.44 1216.55,17.18 1217.45,19.18
             1219.00,34.18 1195.27,68.82 1163.36,69.91
             1162.00,68.73 1161.36,67.73 1159.97,66.44 Z
           M 1214.28,9.19
           C 1219.68,7.28 1218.34,12.14 1216.88,12.66
             1216.36,13.05 1213.06,10.11 1214.28,9.19 Z
           M 1151.48,69.52
           C 1151.48,69.52 1156.22,65.30 1156.22,65.30
             1156.22,65.30 1160.17,69.48 1160.13,69.48
             1160.09,69.48 1154.78,72.96 1154.78,73.00
             1154.78,73.04 1151.48,69.52 1151.48,69.52 Z
           M 1114.45,102.36
           C 1120.82,87.91 1142.00,73.18 1149.82,71.36
             1149.82,71.36 1151.55,72.82 1153.82,75.82
             1143.18,88.00 1125.82,100.45 1117.55,105.36
             1116.09,104.64 1114.82,103.45 1114.45,102.36 Z" />
		   
</svg>
