<?xml version="1.0" encoding="UTF-8" standalone="no"?>
<svg
   width="193.88039mm"
   height="36.757462mm"
   viewBox="0 0 549.65055 104.20743"
   version="1.1"
   id="svg7"
   sodipodi:docname="search_window.svg"
   inkscape:version="1.1.2 (b8e25be833, 2022-02-05)"
   xmlns:inkscape="http://www.inkscape.org/namespaces/inkscape"
   xmlns:sodipodi="http://sodipodi.sourceforge.net/DTD/sodipodi-0.dtd"
   xmlns="http://www.w3.org/2000/svg"
   xmlns:svg="http://www.w3.org/2000/svg">
  <defs
     id="defs11" />
  <sodipodi:namedview
     id="namedview9"
     pagecolor="#ffffff"
     bordercolor="#999999"
     borderopacity="1"
     inkscape:pageshadow="0"
     inkscape:pageopacity="0"
     inkscape:pagecheckerboard="0"
     inkscape:document-units="mm"
     showgrid="false"
     units="mm"
     inkscape:zoom="1.0201768"
     inkscape:cx="385.71747"
     inkscape:cy="171.5389"
     inkscape:window-width="1920"
     inkscape:window-height="1017"
     inkscape:window-x="-8"
     inkscape:window-y="-8"
     inkscape:window-maximized="1"
     inkscape:current-layer="svg7" />
  <path
     id="Path"
     fill="#000000"
     stroke="#000000"
     stroke-width="0"
     d="m 106.42,15.29739 c 70.41,-4.85 439.78083,0.257576 442.48083,0.707576 -12.07,29.91 0.75,61.25 0.75,61.25 0,0 -42.73016,2.11 -49.36016,3.3 0,0 -3.35,2.2 -3.46,7.45 0,0 -15.85005,-1.133351 -17.95005,-1.583351 -0.11,-0.02 -4.95995,-3.326649 -4.95995,-3.326649 l 0.19,-6.73 c 0,0 -157.46335,-1.915259 -192.07814,1.450819 0,0 -244.342529,4.931605 -242.092529,2.051605 82.119999,-7.66 506.260829,-7.312424 506.260829,-7.312424 0,0 -11,-30.46 0.76,-54.8 0,0 -402.38083,-3.807576 -439.93083,0.772424 0,-0.05 -0.61,-1.6 -0.61,-3.23 z"
     sodipodi:nodetypes="cccccccccccccc" />
  <path
     id="Unnamed"
     fill="#000000"
     stroke="#000000"
     stroke-width="0"
     d="m 4.0000006,103.23739 c 0,0 -1.25,-0.57 -1.86,-1.23 C 0.96000057,100.71739 5.5774692e-7,98.897389 5.5774692e-7,98.897389 c 0,0 5.41000004225308,-11.669999 14.06000044225308,-19.419999 10.17,-9.12 23.82,-14.55 23.82,-14.55 0,0 3.63,-5.45 3.63,-5.45 0,0 -14.8,-13.91 11.82,-44 28.12,-25.91 46.729999,-11.4600003 46.729999,-11.4600003 0,0 4.39,-3.2 7.27,0.3 1.88,4.5000002 -2.91,6.6100003 -2.91,6.6100003 0,0 10.53,14.76 -13.969999,38.52 -23.12,23.62 -38.76,20.03 -38.76,20.03 0,0 -8.36,4 -8.36,4 0,0 -5.29,10.68 -14.55,18.54 -8.82,7.499999 -21.6300004,12.19 -21.6300004,12.19 0,0 -2.13,-0.14 -3.15,-0.97 z" />
  <path
     id="path4"
     fill="#ffffff"
     stroke="#000000"
     stroke-width="0"
     d="m 44.330001,58.06739 c -12.69,-18.12 34.75,-63.5000003 54,-52.5000003 12.619999,4.6200003 -36.69,65.4400003 -54,52.5000003 z m 9.45,-19.41 c -0.71,-0.32 -3.77,8.27 -1.81,9.15 1.89,0.75 6.3,-7.02 5.8,-7.22 0.12,0.25 -3.87,5.81 -4.51,4.4 -0.86,-0.71 0.06,-6.71 0.52,-6.33 z m 12.29,-19.05 c -0.47,-0.88 -10.83,11.13 -9.13,14.31 5.85,2.72 15.8,-14.52 14.56,-15.09 0.75,0.1 -7.95,14.56 -13.28,13.87 -1.87,-1.39 7.58,-13.29 7.85,-13.09 z M 477.94061,83.301614 c 0.73,-1.63 18.17,-3.2 18.04,-2.91 -0.33,-0.27 -2.64,5.15 -2.25,5.88 -0.15,0.59 -16.02,-1.43 -15.72,-2.6 z"
     sodipodi:nodetypes="cccccccccccccccccc" />
  <path
     id="Unnamed #1"
     fill="#ffffff"
     stroke="#000000"
     stroke-width="0"
     d="m 55.690001,22.11739 c -17.09,17 -14.51,30.97 -14.72,30.54 -7.64,-21.54 27.91,-54.7300004 48,-50.7300003 0,0 -15.55,1 -33.28,20.1900003 z m -8.39,40.89 c 34.67,-3.99 55.299999,-46.89 55.279999,-50 0,0 1.3,0.74 2.2,2.74 1.55,15 -22.179999,49.64 -54.089999,50.73 -1.36,-1.18 -2,-2.18 -3.39,-3.47 z M 101.61,5.7573897 c 5.4,-1.91 4.06,2.9500002 2.6,3.4700002 -0.52,0.39 -3.82,-2.5500002 -2.6,-3.4700002 z M 38.810001,66.08739 c 0,0 4.74,-4.22 4.74,-4.22 0,0 3.95,4.18 3.91,4.18 -0.04,0 -5.35,3.48 -5.35,3.52 0,0.04 -3.3,-3.48 -3.3,-3.48 z M 1.7800006,98.927389 C 8.1500006,84.47739 29.330001,69.74739 37.150001,67.92739 c 0,0 1.73,1.46 4,4.46 -10.64,12.18 -28,24.63 -36.2700004,29.54 -1.46,-0.72 -2.73,-1.91 -3.1,-3.000001 z" />
</svg>
